<?xml version="1.0" encoding="UTF-8"?>
<svg xmlns="http://www.w3.org/2000/svg" width="900" height="220" viewBox="0 0 900 220" role="img" aria-labelledby="title description">
  <title id="title">About David Klingbeil</title>
  <desc id="description">A terminal card summarizing David Klingbeil's studies, current work, focus, and interests.</desc>

  <rect x="0.5" y="0.5" width="899" height="219" rx="11" fill="#0b0e14" stroke="#2a3038"/>
  <path d="M0.5 12a11 11 0 0 1 11-11h877a11 11 0 0 1 11 11v33H0.5z" fill="#161b22"/>
  <rect x="0.5" y="44" width="899" height="1" fill="#2a3038"/>

  <circle cx="22" cy="22.5" r="6" fill="#ff5f56"/>
  <circle cx="42" cy="22.5" r="6" fill="#ffbd2e"/>
  <circle cx="62" cy="22.5" r="6" fill="#27c93f"/>

  <g font-family="ui-monospace, 'SF Mono', SFMono-Regular, Menlo, Consolas, monospace">
    <text x="450" y="27" text-anchor="middle" font-size="12.5" fill="#8b949e">dklingbeil@github: ~$ cat about.yml</text>
    <text x="28" y="76" font-size="15" font-weight="700" fill="#3fb950">dklingbeil@github</text>
    <text x="190" y="76" font-size="15" fill="#c9d1d9">:~$ cat about.yml</text>

    <g font-size="14">
      <text x="28" y="111" font-weight="700" fill="#58a6ff">name:</text>
      <text x="168" y="111" fill="#c9d1d9">David Klingbeil</text>

      <text x="28" y="136" font-weight="700" fill="#58a6ff">focus:</text>
      <text x="168" y="136" fill="#c9d1d9">AI · Software Engineering · Applied ML</text>

      <text x="28" y="161" font-weight="700" fill="#58a6ff">studying:</text>
      <text x="168" y="161" fill="#c9d1d9">BSc Artificial Intelligence @ JKU Linz</text>

      <text x="28" y="186" font-weight="700" fill="#58a6ff">working:</text>
      <text x="168" y="186" fill="#c9d1d9">Intranet Developer @ JKU Racing</text>

      <text x="28" y="211" font-weight="700" fill="#58a6ff">building:</text>
      <text x="168" y="211" fill="#c9d1d9">useful systems across ML, backend engineering, and infrastructure</text>
    </g>
  </g>
</svg>
