<?xml version="1.0" encoding="UTF-8"?>
<svg xmlns="http://www.w3.org/2000/svg" width="900" height="320" viewBox="0 0 900 320" role="img" aria-labelledby="title description">
  <title id="title">David Klingbeil's selected projects</title>
  <desc id="description">A terminal folder tree summarizing three selected software and machine learning projects and their results.</desc>

  <rect x="0.5" y="0.5" width="899" height="319" rx="11" fill="#0b0e14" stroke="#2a3038"/>
  <path d="M0.5 12a11 11 0 0 1 11-11h877a11 11 0 0 1 11 11v33H0.5z" fill="#161b22"/>
  <rect x="0.5" y="44" width="899" height="1" fill="#2a3038"/>

  <circle cx="22" cy="22.5" r="6" fill="#ff5f56"/>
  <circle cx="42" cy="22.5" r="6" fill="#ffbd2e"/>
  <circle cx="62" cy="22.5" r="6" fill="#27c93f"/>

  <g font-family="ui-monospace, 'SF Mono', SFMono-Regular, Menlo, Consolas, monospace">
    <text x="450" y="27" text-anchor="middle" font-size="12.5" fill="#8b949e">dklingbeil@github: ~$ tree projects/</text>
    <text x="28" y="76" font-size="15" font-weight="700" fill="#3fb950">dklingbeil@github</text>
    <text x="190" y="76" font-size="15" fill="#c9d1d9">:~$ tree projects/</text>

    <g font-size="13.5" xml:space="preserve">
      <text x="28" y="109" font-weight="700" fill="#3fb950">projects/</text>

      <text x="28" y="131" font-weight="700" fill="#58a6ff">├── image-classification/</text>
      <text x="28" y="153" fill="#c9d1d9">│   ├── model: PyTorch CNN</text>
      <text x="28" y="175" fill="#c9d1d9">│   └── result: 73.4% hidden-test accuracy</text>

      <text x="28" y="197" font-weight="700" fill="#58a6ff">├── sound-event-detection/</text>
      <text x="28" y="219" fill="#c9d1d9">│   ├── model: 10-class BiGRU · PyTorch Lightning</text>
      <text x="28" y="241" fill="#c9d1d9">│   └── result: evaluation cost 108 → 38–40 · approximately 65% lower</text>

      <text x="28" y="263" font-weight="700" fill="#58a6ff">└── lora-city-wallet/</text>
      <text x="28" y="285" fill="#c9d1d9">    ├── product: privacy-preserving local-commerce hackathon MVP</text>
      <text x="28" y="307" fill="#c9d1d9">    └── stack: Expo · Express · Prisma · PostgreSQL</text>
    </g>
  </g>
</svg>
